<?xml version="1.0" encoding="UTF-8" standalone="no"?>
<svg
   xmlns:osb="http://www.openswatchbook.org/uri/2009/osb"
   xmlns:dc="http://purl.org/dc/elements/1.1/"
   xmlns:cc="http://creativecommons.org/ns#"
   xmlns:rdf="http://www.w3.org/1999/02/22-rdf-syntax-ns#"
   xmlns:svg="http://www.w3.org/2000/svg"
   xmlns="http://www.w3.org/2000/svg"
   xmlns:sodipodi="http://sodipodi.sourceforge.net/DTD/sodipodi-0.dtd"
   xmlns:inkscape="http://www.inkscape.org/namespaces/inkscape"
   aria-hidden="true"
   focusable="false"
   data-prefix="fas"
   data-icon="key"
   class="svg-inline--fa fa-key fa-w-16"
   role="img"
   viewBox="0 0 542 542"
   version="1.1"
   id="svg4"
   sodipodi:docname="key-solid-green.svg"
   inkscape:version="0.92.2 (5c3e80d, 2017-08-06)"
   width="542"
   height="542">
  <metadata
     id="metadata10">
    <rdf:RDF>
      <cc:Work
         rdf:about="">
        <dc:format>image/svg+xml</dc:format>
        <dc:type
           rdf:resource="http://purl.org/dc/dcmitype/StillImage" />
        <dc:title></dc:title>
      </cc:Work>
    </rdf:RDF>
  </metadata>
  <defs
     id="defs8">
    <linearGradient
       id="linearGradient4508"
       osb:paint="solid">
      <stop
         style="stop-color:#ff0000;stop-opacity:1;"
         offset="0"
         id="stop4506" />
    </linearGradient>
  </defs>
  <sodipodi:namedview
     pagecolor="#ffffff"
     bordercolor="#666666"
     borderopacity="1"
     objecttolerance="10"
     gridtolerance="10"
     guidetolerance="10"
     inkscape:pageopacity="0"
     inkscape:pageshadow="2"
     inkscape:window-width="1920"
     inkscape:window-height="1001"
     id="namedview6"
     showgrid="false"
     inkscape:zoom="0.4609375"
     inkscape:cx="-311.50847"
     inkscape:cy="271"
     inkscape:window-x="-9"
     inkscape:window-y="-9"
     inkscape:window-maximized="1"
     inkscape:current-layer="svg4" />
  <path
     d="M 527,191.001 C 527,288.203 448.202,367 351,367 c -11.22,0 -22.19,-1.062 -32.827,-3.069 l -24.012,27.014 A 23.999,23.999 0 0 1 276.223,399 H 239 v 40 c 0,13.255 -10.745,24 -24,24 h -40 v 40 c 0,13.255 -10.745,24 -24,24 H 39 C 25.745,527 15,516.255 15,503 v -78.059 c 0,-6.365 2.529,-12.47 7.029,-16.971 L 183.831,246.168 C 178.108,228.814 175,210.271 175,191 175,93.798 253.797,15.001 350.999,15 448.488,14.999 527,93.511 527,191.001 Z M 351,143 c 0,26.51 21.49,48 48,48 26.51,0 48,-21.49 48,-48 0,-26.51 -21.49,-48 -48,-48 -26.51,0 -48,21.49 -48,48 z"
     id="path2"
     style="fill:#00ff00;stroke:#000000;stroke-width:20;stroke-miterlimit:4;stroke-dasharray:none;stroke-opacity:1;fill-opacity:1"
     inkscape:connector-curvature="0" />
</svg>
